<svg width="512" height="512" viewBox="0 0 512 512" xmlns="http://www.w3.org/2000/svg">
<path fill-rule="evenodd" clip-rule="evenodd" d="M0 0H512V512H0V0ZM191.182 74.8182H230.545V195.727C230.545 209.303 227.303 221.182 220.818 231.364C214.394 241.545 205.394 249.485 193.818 255.182C182.242 260.818 168.758 263.636 153.364 263.636C137.909 263.636 124.394 260.818 112.818 255.182C101.242 249.485 92.2424 241.545 85.8182 231.364C79.3939 221.182 76.1818 209.303 76.1818 195.727V74.8182H115.545V192.364C115.545 199.455 117.091 205.758 120.182 211.273C123.333 216.788 127.758 221.121 133.455 224.273C139.152 227.424 145.788 229 153.364 229C161 229 167.636 227.424 173.273 224.273C178.97 221.121 183.364 216.788 186.455 211.273C189.606 205.758 191.182 199.455 191.182 192.364V74.8182ZM358.818 394.273L313.818 252.818H270.091L334.364 439H385.091L449.273 252.818H405.636L360.545 394.273H358.818Z"/>
</svg>
