<svg width="640" height="640" viewBox="0 0 640 640" xmlns="http://www.w3.org/2000/svg">
  <style type="text/css">
	.st0{fill:#FFFFFF;}
</style>
<path class="st0" fill-rule="evenodd" clip-rule="evenodd" d="M64 64H576V576H64V64ZM255.182 138.818H294.545V259.727C294.545 273.303 291.303 285.182 284.818 295.364C278.394 305.545 269.394 313.485 257.818 319.182C246.242 324.818 232.758 327.636 217.364 327.636C201.909 327.636 188.394 324.818 176.818 319.182C165.242 313.485 156.242 305.545 149.818 295.364C143.394 285.182 140.182 273.303 140.182 259.727V138.818H179.545V256.364C179.545 263.455 181.091 269.758 184.182 275.273C187.333 280.788 191.758 285.121 197.455 288.273C203.152 291.424 209.788 293 217.364 293C225 293 231.636 291.424 237.273 288.273C242.97 285.121 247.364 280.788 250.455 275.273C253.606 269.758 255.182 263.455 255.182 256.364V138.818ZM422.818 458.273L377.818 316.818H334.091L398.364 503H449.091L513.273 316.818H469.636L424.545 458.273H422.818Z"/>
</svg>
